<?xml version="1.0" standalone="no"?>
<!DOCTYPE svg PUBLIC "-//W3C//DTD SVG 20010904//EN"
 "http://www.w3.org/TR/2001/REC-SVG-20010904/DTD/svg10.dtd">
<svg version="1.0" xmlns="http://www.w3.org/2000/svg"
 width="120.000000pt" height="120.000000pt" viewBox="0 0 120.000000 120.000000"
 preserveAspectRatio="xMidYMid meet">
<metadata>
Created by potrace 1.11, written by Peter Selinger 2001-2013
</metadata>
<g transform="translate(0.000000,120.000000) scale(0.100000,-0.100000)"
fill="#000000" stroke="none">
<path d="M80 1120 c-19 -19 -20 -33 -20 -520 0 -487 1 -501 20 -520 19 -19 33
-20 490 -20 457 0 471 1 490 20 19 19 20 33 20 520 0 487 -1 501 -20 520 -19
19 -33 20 -490 20 -457 0 -471 -1 -490 -20z m949 -9 c8 -5 10 -139 9 -497 l-3
-489 -465 0 -465 0 -3 489 c-1 358 1 492 9 497 15 9 903 9 918 0z"/>
<path d="M908 908 c-19 -24 -56 -76 -83 -116 -28 -40 -76 -109 -108 -155 -32
-45 -84 -119 -115 -164 -31 -46 -60 -83 -63 -83 -3 0 -37 43 -75 95 -73 99
-90 113 -124 95 -26 -14 -210 -260 -210 -282 0 -22 27 -48 50 -48 20 0 52 34
124 133 27 37 52 67 56 67 4 0 38 -43 76 -95 73 -101 101 -120 134 -90 10 9
48 60 85 113 72 106 124 180 263 377 50 72 92 138 92 147 0 22 -27 48 -50 48
-10 0 -34 -19 -52 -42z"/>
</g>
</svg>
